<svg width="95" height="61" viewBox="0 0 95 61" fill="none" xmlns="http://www.w3.org/2000/svg">
<path fill-rule="evenodd" clip-rule="evenodd" d="M48.5716 0.207506C46.9343 0.702503 46.3555 1.2954 46.3555 2.47716C46.3555 3.74766 47.0165 4.04612 50.5816 4.38455C55.1561 4.81868 57.9413 6.66264 58.8595 9.86472C60.6185 16.0009 54.918 22.3112 48.0965 21.7791C42.6345 21.3531 40.6619 16.1263 44.5723 12.4405C46.3083 10.8041 47.7067 10.2695 49.2786 10.6406C50.0772 10.8291 50.253 11.0938 50.253 12.1087C50.253 13.0829 49.9412 13.6021 48.7914 14.5415C46.7702 16.1934 46.5737 16.6059 47.3076 17.6597C48.3705 19.1853 50.7597 18.8194 53.1134 16.7701C54.6549 15.4281 55.3198 14.0825 55.3198 12.3063C55.3198 8.95686 52.4501 6.95304 48.1207 7.28011C42.8188 7.6805 38.8176 11.147 37.8117 16.2117C36.423 23.2044 44.6441 27.8419 53.371 24.9889C60.9245 22.5194 65.7204 12.9652 62.586 6.63258C61.4452 4.32809 58.2601 1.58616 55.8047 0.794902C53.5012 0.0524054 50.0203 -0.230292 48.5716 0.207506ZM38.6652 3.70805C35.6992 5.58758 34.9922 7.21227 36.8026 7.9885C38.0775 8.53483 40.478 7.55437 42.0873 5.82995C43.3497 4.47732 43.4311 4.18252 42.834 3.13239C42.2385 2.08556 40.9445 2.26413 38.6652 3.70805ZM32.5796 11.5272C31.4587 12.6921 31.9556 15.9899 33.252 15.9899C34.0073 15.9899 35.0253 14.7912 35.4482 13.4045C36.0788 11.3358 34.0447 10.0041 32.5796 11.5272ZM56.3776 43.3504C55.8705 43.8271 56.049 59.429 56.567 59.9163C57.2167 60.5275 59.1963 60.4682 59.4566 59.8302C59.6352 59.392 59.878 59.4224 60.9058 60.012C63.1492 61.299 65.1459 60.8183 66.6862 58.6205C67.2213 57.8568 67.3975 56.8954 67.3994 54.728C67.4022 51.9421 67.3597 51.8097 66.077 50.603C65.0255 49.6138 64.4397 49.3564 63.2408 49.3564C62.4094 49.3564 61.3458 49.609 60.8773 49.9177L60.0253 50.4791L59.9138 46.8927L59.802 43.3064L58.2289 43.1975C57.3637 43.1377 56.5304 43.2063 56.3776 43.3504ZM0.211362 44.0698C-0.478502 45.7608 0.545381 46.7897 2.91703 46.7897H4.63429L4.7403 53.4813L4.8467 60.173H6.60059H8.35449L8.4605 53.5L8.5669 46.8275L10.564 46.7167C12.8183 46.5921 13.4891 45.9915 13.0814 44.4632L12.8218 43.4897H6.63489C1.35256 43.4897 0.413254 43.5744 0.211362 44.0698ZM70.033 44.2524C69.25 44.6814 69.1296 46.0681 69.8186 46.7164C70.0759 46.9584 70.7424 47.1564 71.2997 47.1564C72.5473 47.1564 73.2485 46.5407 73.2485 45.4459C73.2485 44.1358 71.4587 43.4714 70.033 44.2524ZM35.1485 45.0129C34.8016 45.3392 34.6629 47.1303 34.6629 51.2748C34.6629 57.841 35.0171 59.2164 36.8965 59.9486C38.5331 60.5866 41.6823 60.3398 42.221 59.5313C42.8578 58.5758 42.0499 57.6298 40.4733 57.485C38.7759 57.3288 38.5736 56.9841 38.5662 54.2348L38.5604 51.9634L40.4117 51.8515C42.1824 51.7445 42.2631 51.692 42.2631 50.6397C42.2631 49.6075 42.1547 49.5283 40.5092 49.3564L38.7553 49.173L38.5604 46.973L38.3655 44.7731L36.9998 44.6645C36.2484 44.6051 35.4155 44.7617 35.1485 45.0129ZM75.5952 45.1306C74.9607 45.8496 75.2011 57.6239 75.8735 58.7478C76.5236 59.8346 78.2693 60.4205 80.4593 60.287C81.7198 60.21 82.4669 59.9644 82.7553 59.5313C83.4144 58.5432 82.5835 57.6269 80.9067 57.4927L79.4845 57.3786V54.6719V51.9652L81.141 51.8523C82.6949 51.7467 82.7974 51.6719 82.7974 50.6397C82.7974 49.6075 82.6949 49.5327 81.141 49.4271L79.4845 49.3142V47.6613C79.4845 45.3491 78.963 44.5897 77.3748 44.5897C76.6584 44.5897 75.8575 44.8332 75.5952 45.1306ZM13.4213 49.7945C11.9519 50.5785 11.6799 51.5157 12.655 52.4331C13.1071 52.8584 13.493 52.9094 14.2394 52.6424C15.591 52.1592 17.2619 52.1995 17.8255 52.7297C18.7827 53.6302 18.2819 54.0222 15.918 54.2238C12.8234 54.4878 11.6674 55.4177 11.6674 57.6437C11.6674 60.4007 14.3333 61.5384 17.09 59.9574C18.2772 59.2765 18.4573 59.2567 18.766 59.7755C19.1171 60.3662 20.4571 60.5371 21.5742 60.1338C22.0804 59.9508 22.1903 59.2468 22.188 56.1921C22.1853 52.1749 21.6798 50.845 19.7782 49.8525C18.6631 49.2702 14.4756 49.2321 13.4213 49.7945ZM25.8934 49.7993C24.6096 50.4919 24.1648 51.2894 24.152 52.9229C24.138 54.6862 24.8516 55.3238 27.7346 56.1239C28.7534 56.4066 29.4534 56.8356 29.5353 57.2276C29.6534 57.7911 29.4402 57.8417 27.7814 57.6448C23.7622 57.1671 23.9446 57.1341 23.9446 58.3397C23.9446 59.2303 24.2042 59.5618 25.3088 60.0806C27.8488 61.2744 31.7046 60.6639 32.7024 58.9098C33.2539 57.9411 33.2067 55.8599 32.6166 55.1141C32.3489 54.7757 31.175 54.1952 30.0084 53.8249C28.8419 53.4542 27.8188 52.957 27.735 52.7205C27.4859 52.018 28.8169 51.776 30.2485 52.2629C31.8395 52.8041 32.7141 52.3392 32.7141 50.9525C32.7141 50.3442 32.4046 49.961 31.7144 49.7139C30.3608 49.2299 26.8538 49.2812 25.8934 49.7993ZM45.1418 50.7369C43.5699 52.1163 43.4666 52.3322 43.3224 54.5362C43.1918 56.5276 43.3037 57.0571 44.0801 58.1189C45.3168 59.8103 47.2749 60.7233 49.6621 60.7215C52.8753 60.7193 54.9063 59.1137 53.7916 57.4575C53.5016 57.0266 53.1594 57.0167 51.7111 57.3981C49.4871 57.984 48.3428 57.8117 47.6194 56.7813L47.0399 55.9563H50.0106C52.5144 55.9563 53.1107 55.8346 53.8048 55.1816C54.9262 54.1267 54.5762 52.154 53.0047 50.676C51.9991 49.7296 51.4838 49.5547 49.3219 49.4253C46.8427 49.2768 46.7854 49.2948 45.1418 50.7369ZM69.8381 49.5991C69.4815 49.7348 69.3509 51.1398 69.3509 54.8475C69.3509 60.2767 69.3813 60.3563 71.4486 60.3563C73.0454 60.3563 73.2485 59.7356 73.2485 54.8563C73.2485 51.7518 73.0949 50.0919 72.7808 49.7964C72.3127 49.356 70.7541 49.2515 69.8381 49.5991ZM87.2796 49.6152C85.3718 50.2716 83.7718 52.6589 83.7718 54.8497C83.7718 58.3859 85.903 60.4337 89.7962 60.6386C92.4489 60.7783 94.6849 59.8338 94.6849 58.5732C94.6849 57.3574 93.7635 56.957 92.0654 57.4358C90.0804 57.995 88.8632 57.7915 88.1538 56.7813L87.5743 55.9563H90.4584C94.2886 55.9563 95.2512 55.3755 94.948 53.2481C94.7898 52.1379 94.3684 51.4258 93.3504 50.5484C92.1422 49.5063 91.7095 49.36 89.9163 49.3853C88.7876 49.4011 87.6012 49.5049 87.2796 49.6152ZM47.6027 52.363C46.64 53.2687 47.0902 53.7563 48.8889 53.7563C50.3501 53.7563 50.6428 53.6405 50.6428 53.0622C50.6428 51.9725 48.5334 51.4874 47.6027 52.363ZM88.0728 52.6322C87.4643 53.7017 87.5302 53.7563 89.4232 53.7563C90.8844 53.7563 91.1771 53.6405 91.1771 53.0622C91.1771 51.8079 88.7346 51.4695 88.0728 52.6322ZM60.8633 52.8606C59.2212 53.9422 59.9887 57.423 61.8692 57.423C63.6952 57.423 64.557 54.3797 63.1149 53.023C62.1764 52.1401 61.978 52.1258 60.8633 52.8606ZM16.0521 56.1991C15.7844 56.301 15.5649 56.7003 15.5649 57.0868C15.5649 58.0456 17.3434 58.0405 17.8898 57.0805C18.1116 56.6904 18.2932 56.2779 18.2932 56.1639C18.2932 55.9145 16.7369 55.9391 16.0521 56.1991Z" fill="#FF785B"/>
</svg>
